<svg width="22" height="22" viewBox="0 0 22 22" fill="none" xmlns="http://www.w3.org/2000/svg">
<path d="M10.5781 0C9.83767 0 9.25588 0.581798 9.25588 1.32227C9.25588 2.06274 9.83767 2.64454 10.5781 2.64454C11.3186 2.64454 11.9004 2.06274 11.9004 1.32227C11.9004 0.581798 11.3186 0 10.5781 0ZM3.9668 2.64454C3.22633 2.64454 2.64454 3.22633 2.64454 3.9668C2.64454 4.70727 3.22633 5.28907 3.9668 5.28907C4.70727 5.28907 5.28907 4.70727 5.28907 3.9668C5.28907 3.22633 4.70727 2.64454 3.9668 2.64454ZM17.1895 2.64454C16.449 2.64454 15.8672 3.22633 15.8672 3.9668C15.8672 4.70727 16.449 5.28907 17.1895 5.28907C17.93 5.28907 18.5118 4.70727 18.5118 3.9668C18.5118 3.22633 17.93 2.64454 17.1895 2.64454ZM10.5781 5.28907C7.66915 5.28907 5.28907 7.66915 5.28907 10.5781C5.28907 13.4871 7.66915 15.8672 10.5781 15.8672C13.4871 15.8672 15.8672 13.4871 15.8672 10.5781C15.8672 7.66915 13.4871 5.28907 10.5781 5.28907ZM1.32227 9.25588C0.581798 9.25588 0 9.83767 0 10.5781C0 11.3186 0.581798 11.9004 1.32227 11.9004C2.06274 11.9004 2.64454 11.3186 2.64454 10.5781C2.64454 9.83767 2.06274 9.25588 1.32227 9.25588ZM19.834 9.25588C19.0935 9.25588 18.5118 9.83767 18.5118 10.5781C18.5118 11.3186 19.0935 11.9004 19.834 11.9004C20.5745 11.9004 21.1563 11.3186 21.1563 10.5781C21.1563 9.83767 20.5745 9.25588 19.834 9.25588ZM3.9668 15.8672C3.22633 15.8672 2.64454 16.449 2.64454 17.1895C2.64454 17.93 3.22633 18.5118 3.9668 18.5118C4.70727 18.5118 5.28907 17.93 5.28907 17.1895C5.28907 16.449 4.70727 15.8672 3.9668 15.8672ZM17.1895 15.8672C16.449 15.8672 15.8672 16.449 15.8672 17.1895C15.8672 17.93 16.449 18.5118 17.1895 18.5118C17.93 18.5118 18.5118 17.93 18.5118 17.1895C18.5118 16.449 17.93 15.8672 17.1895 15.8672ZM10.5781 18.5118C9.83767 18.5118 9.25588 19.0935 9.25588 19.834C9.25588 20.5745 9.83767 21.1563 10.5781 21.1563C11.3186 21.1563 11.9004 20.5745 11.9004 19.834C11.9004 19.0935 11.3186 18.5118 10.5781 18.5118Z" fill="white"/>
</svg>
