<svg width="52" height="16" viewBox="0 0 52 16" fill="none" xmlns="http://www.w3.org/2000/svg">
<path d="M3.852 15H0.24L1.356 0.936H6.984L8.04 5.652L8.52 8.04L8.976 5.664L9.912 0.936H14.928L15.96 15H12.228L11.616 6.732L11.472 3.684L9.636 13.596H6.504L4.296 3.684L4.224 6.732L3.852 15ZM30.4314 14.568C29.7434 15.128 28.3794 15.408 26.3394 15.408C24.7394 15.408 23.4794 14.972 22.5594 14.1C21.6394 13.22 21.1794 12.124 21.1794 10.812C21.1794 10.004 21.4634 9.3 22.0314 8.7C22.5994 8.1 23.2554 7.648 23.9994 7.344C23.9514 7.24 23.8514 7.068 23.6994 6.828C23.5554 6.588 23.4194 6.364 23.2914 6.156C23.1634 5.948 23.0474 5.68 22.9434 5.352C22.8394 5.024 22.7874 4.696 22.7874 4.368C22.7874 3.144 23.1634 2.22 23.9154 1.596C24.6754 0.972 25.9434 0.66 27.7194 0.66C28.5034 0.66 29.1914 0.764 29.7834 0.972C30.3754 1.18 30.8314 1.46 31.1514 1.812C31.4714 2.156 31.7074 2.524 31.8594 2.916C32.0114 3.3 32.0874 3.708 32.0874 4.14C32.0874 5.036 31.8434 5.836 31.3554 6.54C30.8754 7.236 30.1274 7.9 29.1114 8.532C29.2314 8.748 29.4474 9.052 29.7594 9.444C30.0794 9.828 30.3714 10.128 30.6354 10.344C30.7074 10.16 30.7634 9.976 30.8034 9.792C30.8514 9.6 30.8874 9.384 30.9114 9.144C30.9434 8.904 30.9314 8.7 30.8754 8.532L34.0794 8.628C34.0794 9.252 34.0114 9.812 33.8754 10.308C33.7394 10.796 33.6034 11.152 33.4674 11.376C33.3314 11.592 33.1394 11.864 32.8914 12.192C33.4594 12.664 34.0234 12.96 34.5834 13.08L33.6594 15.18C33.4434 15.204 33.2714 15.216 33.1434 15.216C31.9674 15.216 31.0634 15 30.4314 14.568ZM24.7434 10.884C24.7434 11.612 24.9714 12.208 25.4274 12.672C25.8834 13.136 26.4154 13.368 27.0234 13.368C27.1194 13.368 27.2074 13.364 27.2874 13.356C27.3674 13.34 27.4514 13.316 27.5394 13.284C27.6274 13.244 27.7034 13.212 27.7674 13.188C27.8314 13.156 27.9274 13.108 28.0554 13.044C28.1834 12.98 28.2874 12.928 28.3674 12.888C27.0714 11.984 26.0314 10.86 25.2474 9.516C25.0554 9.628 24.9234 9.78 24.8514 9.972C24.7794 10.164 24.7434 10.468 24.7434 10.884ZM27.6594 2.34C27.0754 2.34 26.7834 2.996 26.7834 4.308C26.7834 5.124 27.0794 5.872 27.6714 6.552C27.9834 6.296 28.2154 6.024 28.3674 5.736C28.5194 5.448 28.6074 5.2 28.6314 4.992C28.6634 4.776 28.6794 4.476 28.6794 4.092C28.6794 2.924 28.3394 2.34 27.6594 2.34ZM47.0533 15C46.9573 14.88 46.7493 14.412 46.4293 13.596C46.1173 12.772 45.7493 11.844 45.3253 10.812C44.9093 9.772 44.5413 8.984 44.2213 8.448V15H40.2493V0.936H44.2213V7.668L47.2093 0.936H51.2053L47.6293 7.536C47.8613 7.696 48.1693 8.132 48.5533 8.844C48.9373 9.556 49.2973 10.304 49.6333 11.088C49.9693 11.872 50.3173 12.66 50.6773 13.452C51.0373 14.236 51.3013 14.752 51.4693 15H47.0533Z" fill="#0ABAB5"/>
</svg>
